<svg xmlns="http://www.w3.org/2000/svg" viewBox="0 0 32 32" id="video-shooting-camera">
  <path fill="#8b8893" d="m4.654 31.295 7.743-7.742.707.707-7.743 7.742z"></path>
  <path fill="#8b8893" d="m12.908 24.26.707-.708 7.743 7.743-.708.707zM3.5 9.5h19v12h-19z"></path>
  <path fill="#787681" d="M21.5 9.5h1v12h-1zM5.5 11.5h15v8h-15z"></path>
  <path fill="#57565c" d="M19.5 11.5h1v8h-1z"></path>
  <path fill="#8b8893" d="m29.5 20.5-5-3v-4l5-3v10z"></path>
  <circle cx="7" cy="5" r="4.5" fill="#57565c"></circle>
  <path fill="#3c3b41" d="M7 .5a4.23 4.23 0 0 0-.5.05 4.48 4.48 0 0 1 0 8.9 4.23 4.23 0 0 0 .5.05 4.5 4.5 0 0 0 0-9Z"></path>
  <circle cx="7" cy="5" r="1" fill="#dadadc"></circle>
  <path fill="#c8c5cc" d="M7 4a1.07 1.07 0 0 0-.41.09 1 1 0 0 1 0 1.82A1.07 1.07 0 0 0 7 6a1 1 0 0 0 0-2Z"></path>
  <circle cx="18" cy="5" r="4.5" fill="#57565c"></circle>
  <path fill="#3c3b41" d="M18 .5a4.23 4.23 0 0 0-.5.05 4.48 4.48 0 0 1 0 8.9 4.23 4.23 0 0 0 .5.05 4.5 4.5 0 0 0 0-9Z"></path>
  <path fill="#787681" d="M9.5 5.5h6v4h-6z"></path>
  <path fill="#3c3b41" d="M14.5 5.5h1v4h-1z"></path>
  <path fill="#57565c" d="M22.5 13.5h2v4h-2z"></path>
  <path fill="#787681" d="M29.5 10.5h2v10h-2zM3.5 16.5.5 18v-5l3 1.5v2z"></path>
  <path fill="#57565c" d="M.5 13v.5l1.11.55a1.64 1.64 0 0 1 .89 1.45 1.64 1.64 0 0 1-.89 1.5l-1.11.5v.5l3-1.5v-2Z"></path>
  <circle cx="18" cy="5" r="1" fill="#dadadc"></circle>
  <path fill="#c8c5cc" d="M18 4a1.16 1.16 0 0 0-.37.07 1 1 0 0 1 0 1.86A1.16 1.16 0 0 0 18 6a1 1 0 0 0 0-2Z"></path>
  <path fill="#dadadc" d="M3.5 14.5h14v2h-14z"></path>
  <path fill="#bcbec0" d="M16.5 14.5h1v2h-1z"></path>
  <path fill="#8b8893" d="M12.5 24h1v8h-1z"></path>
  <path fill="#787681" d="M13.5 24.5h-1a3 3 0 0 1-3-3h7a3 3 0 0 1-3 3Z"></path>
  <path fill="#57565c" d="M15.5 21.5a3 3 0 0 1-3 3h1a3 3 0 0 0 3-3Z"></path>
  <path d="M31.5 10h-2a.48.48 0 0 0-.26.07L24.36 13H23V9.5a.5.5 0 0 0-.5-.5H21a5 5 0 1 0-8-4h-1a5 5 0 1 0-8 4h-.5a.5.5 0 0 0-.5.5v4.19L.72 12.55a.48.48 0 0 0-.48 0A.52.52 0 0 0 0 13v5a.52.52 0 0 0 .24.43.48.48 0 0 0 .26.07.54.54 0 0 0 .22-.05L3 17.31v4.19a.5.5 0 0 0 .5.5h5.55a3.49 3.49 0 0 0 2.15 2.74l-6.55 6.55.7.71 7-7h.13v7h1v-7h.13l7 7 .7-.71-6.51-6.55A3.49 3.49 0 0 0 17 22h5.5a.5.5 0 0 0 .5-.5V18h1.36l4.88 2.93a.48.48 0 0 0 .26.07h2a.5.5 0 0 0 .5-.5v-10a.5.5 0 0 0-.5-.5ZM3 16.19l-2 1v-3.38l2 1ZM18 1a4 4 0 1 1-2 7.46v-3a.5.5 0 0 0-.5-.5H14A4 4 0 0 1 18 1Zm-3 5v2.74a.5.5 0 0 0 .08.26H10V6ZM3 5a4 4 0 0 1 8 0H9.5a.5.5 0 0 0-.5.5v2.95A4 4 0 0 1 3 5Zm1 10h13v1H4Zm13.5-1H6v-2h14v7H6v-2h11.5a.5.5 0 0 0 .5-.5v-2a.5.5 0 0 0-.5-.5Zm-4 10h-1a2.5 2.5 0 0 1-2.45-2H16a2.5 2.5 0 0 1-2.5 2Zm8.5-3H4v-4h1v2.5a.5.5 0 0 0 .5.5h15a.5.5 0 0 0 .5-.5v-8a.5.5 0 0 0-.5-.5h-15a.5.5 0 0 0-.5.5V14H4v-4h18Zm2-4h-1v-3h1Zm5 2.62-4-2.4v-3.44l4-2.4Zm2 .38h-1v-9h1ZM18 6.5A1.5 1.5 0 1 0 16.5 5 1.5 1.5 0 0 0 18 6.5Zm0-2a.5.5 0 1 1-.5.5.5.5 0 0 1 .5-.5Zm-11 2A1.5 1.5 0 1 0 5.5 5 1.5 1.5 0 0 0 7 6.5Zm0-2a.5.5 0 1 1-.5.5.5.5 0 0 1 .5-.5Z"></path>
</svg>
